<svg width="170" height="170" viewBox="0 0 170 170" fill="none" xmlns="http://www.w3.org/2000/svg">
<path d="M111.562 47.8125H95.625V23.9062C95.625 16.583 89.667 10.625 82.3438 10.625H13.2812C5.95797 10.625 0 16.583 0 23.9062V146.094C0 153.417 5.95797 159.375 13.2812 159.375H82.3438C89.667 159.375 95.625 153.417 95.625 146.094V122.188H111.562C113.031 122.188 114.219 121 114.219 119.531V50.4688C114.219 49.0025 113.031 47.8125 111.562 47.8125Z" fill="url(#paint0_linear_3496_35351)"/>
<path d="M47.8125 122.188V47.8125H85V34.5312C85 33.065 83.8127 31.875 82.3438 31.875H13.2812C11.8123 31.875 10.625 33.065 10.625 34.5312V135.469C10.625 136.938 11.8123 138.125 13.2812 138.125H82.3438C83.8127 138.125 85 136.938 85 135.469V122.188H47.8125Z" fill="url(#paint1_linear_3496_35351)"/>
<path d="M45.1562 127.5C43.6873 127.5 42.5 126.313 42.5 124.844V45.1562C42.5 43.69 43.6873 42.5 45.1562 42.5C46.6252 42.5 47.8125 43.69 47.8125 45.1562V124.844C47.8125 126.313 46.6252 127.5 45.1562 127.5Z" fill="url(#paint2_linear_3496_35351)"/>
<path d="M111.562 47.8125H47.8125V122.188H111.562C113.031 122.188 114.219 121 114.219 119.531V50.4688C114.219 49.0025 113.031 47.8125 111.562 47.8125Z" fill="url(#paint3_linear_3496_35351)"/>
<path d="M53.125 23.9062H42.5C41.0311 23.9062 39.8438 22.7162 39.8438 21.25C39.8438 19.7838 41.0311 18.5938 42.5 18.5938H53.125C54.5939 18.5938 55.7812 19.7838 55.7812 21.25C55.7812 22.7162 54.5939 23.9062 53.125 23.9062Z" fill="url(#paint4_linear_3496_35351)"/>
<path d="M53.125 151.406H42.5C41.0311 151.406 39.8438 150.219 39.8438 148.75C39.8438 147.281 41.0311 146.094 42.5 146.094H53.125C54.5939 146.094 55.7812 147.281 55.7812 148.75C55.7812 150.219 54.5939 151.406 53.125 151.406Z" fill="url(#paint5_linear_3496_35351)"/>
<path d="M47.8125 61.0938H90.3125C90.3125 66.9614 95.0698 71.7188 100.938 71.7188V98.2812C95.0698 98.2812 90.3125 103.039 90.3125 108.906H47.8125V61.0938Z" fill="url(#paint6_linear_3496_35351)"/>
<path d="M69.0625 82.3438H63.75C62.2838 82.3438 61.0938 81.1511 61.0938 79.6875C61.0938 78.2239 62.2838 77.0312 63.75 77.0312H71.7188C73.1877 77.0312 74.375 75.8412 74.375 74.375C74.375 72.9088 73.1877 71.7188 71.7188 71.7188H69.0625C69.0625 70.2525 67.8752 69.0625 66.4062 69.0625C64.9373 69.0625 63.75 70.2525 63.75 71.7188C59.3566 71.7188 55.7812 75.2941 55.7812 79.6875C55.7812 84.0809 59.3566 87.6562 63.75 87.6562H69.0625C70.5287 87.6562 71.7188 88.8463 71.7188 90.3125C71.7188 91.7787 70.5287 92.9688 69.0625 92.9688H61.0938C59.6248 92.9688 58.4375 94.1561 58.4375 95.625C58.4375 97.0939 59.6248 98.2812 61.0938 98.2812H63.75C63.75 99.7502 64.9373 100.938 66.4062 100.938C67.8752 100.938 69.0625 99.7502 69.0625 98.2812C73.4559 98.2812 77.0312 94.7059 77.0312 90.3125C77.0312 85.9191 73.4559 82.3438 69.0625 82.3438Z" fill="url(#paint7_linear_3496_35351)"/>
<path d="M159.375 34.5312C165.243 34.5312 170 29.7743 170 23.9062C170 18.0382 165.243 13.2812 159.375 13.2812C153.507 13.2812 148.75 18.0382 148.75 23.9062C148.75 29.7743 153.507 34.5312 159.375 34.5312Z" fill="url(#paint8_linear_3496_35351)"/>
<path d="M159.375 95.625C165.243 95.625 170 90.868 170 85C170 79.132 165.243 74.375 159.375 74.375C153.507 74.375 148.75 79.132 148.75 85C148.75 90.868 153.507 95.625 159.375 95.625Z" fill="url(#paint9_linear_3496_35351)"/>
<path d="M159.375 156.719C165.243 156.719 170 151.962 170 146.094C170 140.226 165.243 135.469 159.375 135.469C153.507 135.469 148.75 140.226 148.75 146.094C148.75 151.962 153.507 156.719 159.375 156.719Z" fill="url(#paint10_linear_3496_35351)"/>
<g filter="url(#filter0_ii_3496_35351)">
<path d="M140.781 26.5625H149.127C148.907 25.7098 148.75 24.828 148.75 23.9062C148.75 22.9845 148.907 22.1027 149.127 21.25H140.781C133.458 21.25 127.5 27.208 127.5 34.5312V82.3438H114.219V87.6562H127.5V135.469C127.5 142.792 133.458 148.75 140.781 148.75H149.127C148.907 147.897 148.75 147.018 148.75 146.094C148.75 145.169 148.907 144.29 149.127 143.438H140.781C136.388 143.438 132.812 139.862 132.812 135.469V87.6562H149.127C148.907 86.8036 148.75 85.9217 148.75 85C148.75 84.0783 148.907 83.1964 149.127 82.3438H132.812V34.5312C132.812 30.1378 136.388 26.5625 140.781 26.5625Z" fill="url(#paint11_linear_3496_35351)"/>
</g>
<defs>
<filter id="filter0_ii_3496_35351" x="112.219" y="20.25" width="38.9082" height="129.5" filterUnits="userSpaceOnUse" color-interpolation-filters="sRGB">
<feFlood flood-opacity="0" result="BackgroundImageFix"/>
<feBlend mode="normal" in="SourceGraphic" in2="BackgroundImageFix" result="shape"/>
<feColorMatrix in="SourceAlpha" type="matrix" values="0 0 0 0 0 0 0 0 0 0 0 0 0 0 0 0 0 0 127 0" result="hardAlpha"/>
<feOffset dx="2" dy="1"/>
<feGaussianBlur stdDeviation="1"/>
<feComposite in2="hardAlpha" operator="arithmetic" k2="-1" k3="1"/>
<feColorMatrix type="matrix" values="0 0 0 0 1 0 0 0 0 1 0 0 0 0 1 0 0 0 0.18 0"/>
<feBlend mode="normal" in2="shape" result="effect1_innerShadow_3496_35351"/>
<feColorMatrix in="SourceAlpha" type="matrix" values="0 0 0 0 0 0 0 0 0 0 0 0 0 0 0 0 0 0 127 0" result="hardAlpha"/>
<feOffset dx="-2" dy="-1"/>
<feGaussianBlur stdDeviation="1"/>
<feComposite in2="hardAlpha" operator="arithmetic" k2="-1" k3="1"/>
<feColorMatrix type="matrix" values="0 0 0 0 0.0625 0 0 0 0 0.0625 0 0 0 0 0.0625 0 0 0 0.18 0"/>
<feBlend mode="normal" in2="effect1_innerShadow_3496_35351" result="effect2_innerShadow_3496_35351"/>
</filter>
<linearGradient id="paint0_linear_3496_35351" x1="129.779" y1="176.928" x2="-19.168" y2="126.081" gradientUnits="userSpaceOnUse">
<stop stop-color="#002860"/>
<stop offset="0.96875" stop-color="#0056CD"/>
</linearGradient>
<linearGradient id="paint1_linear_3496_35351" x1="-8" y1="6" x2="94" y2="175" gradientUnits="userSpaceOnUse">
<stop stop-color="#E4F1FF"/>
<stop offset="1" stop-color="white"/>
</linearGradient>
<linearGradient id="paint2_linear_3496_35351" x1="23.3559" y1="106.801" x2="66.9566" y2="63.1999" gradientUnits="userSpaceOnUse">
<stop stop-color="#006DF0"/>
<stop offset="1" stop-color="#57A4FF"/>
</linearGradient>
<linearGradient id="paint3_linear_3496_35351" x1="132" y1="144" x2="18.5621" y2="-26.0428" gradientUnits="userSpaceOnUse">
<stop stop-color="#5377F9"/>
<stop offset="1" stop-color="#E0E0E2"/>
</linearGradient>
<linearGradient id="paint4_linear_3496_35351" x1="43.2778" y1="25.7847" x2="52.3473" y2="16.7152" gradientUnits="userSpaceOnUse">
<stop stop-color="#2488FF"/>
<stop offset="0.2088" stop-color="#278AFF"/>
<stop offset="0.3889" stop-color="#3290FF"/>
<stop offset="0.5584" stop-color="#4499FF"/>
<stop offset="0.7214" stop-color="#5DA7FF"/>
<stop offset="0.8782" stop-color="#7DB8FF"/>
<stop offset="1" stop-color="#9BC9FF"/>
</linearGradient>
<linearGradient id="paint5_linear_3496_35351" x1="43.2775" y1="153.285" x2="52.3475" y2="144.215" gradientUnits="userSpaceOnUse">
<stop stop-color="#2488FF"/>
<stop offset="0.2088" stop-color="#278AFF"/>
<stop offset="0.3889" stop-color="#3290FF"/>
<stop offset="0.5584" stop-color="#4499FF"/>
<stop offset="0.7214" stop-color="#5DA7FF"/>
<stop offset="0.8782" stop-color="#7DB8FF"/>
<stop offset="1" stop-color="#9BC9FF"/>
</linearGradient>
<linearGradient id="paint6_linear_3496_35351" x1="46.4846" y1="107.578" x2="91.6404" y2="62.4229" gradientUnits="userSpaceOnUse">
<stop stop-color="#A7ADF0"/>
<stop offset="1" stop-color="#E0E0E2"/>
</linearGradient>
<linearGradient id="paint7_linear_3496_35351" x1="56.5587" y1="94.8475" x2="76.2535" y2="75.1528" gradientUnits="userSpaceOnUse">
<stop stop-color="#005ECE"/>
<stop offset="1" stop-color="#006DF0"/>
</linearGradient>
<linearGradient id="paint8_linear_3496_35351" x1="151.865" y1="31.416" x2="166.885" y2="16.3965" gradientUnits="userSpaceOnUse">
<stop stop-color="#A7ADF0"/>
<stop offset="1" stop-color="#E0E0E2"/>
</linearGradient>
<linearGradient id="paint9_linear_3496_35351" x1="151.865" y1="92.5098" x2="166.885" y2="77.4902" gradientUnits="userSpaceOnUse">
<stop stop-color="#A7ADF0"/>
<stop offset="1" stop-color="#E0E0E2"/>
</linearGradient>
<linearGradient id="paint10_linear_3496_35351" x1="151.865" y1="153.604" x2="166.885" y2="138.584" gradientUnits="userSpaceOnUse">
<stop stop-color="#A7ADF0"/>
<stop offset="1" stop-color="#E0E0E2"/>
</linearGradient>
<linearGradient id="paint11_linear_3496_35351" x1="153.883" y1="163.795" x2="103.798" y2="157.699" gradientUnits="userSpaceOnUse">
<stop stop-color="#002860"/>
<stop offset="0.96875" stop-color="#0056CD"/>
</linearGradient>
</defs>
</svg>
